<?xml version="1.0" encoding="UTF-8" standalone="no"?>
<!-- Created with Inkscape (http://www.inkscape.org/) -->

<svg
   version="1.1"
   id="svg1"
   width="256"
   height="256"
   viewBox="0 0 256 256"
   sodipodi:docname="logo-256x256-white-button-more-curve.svg"
   inkscape:version="1.3.2 (091e20ef0f, 2023-11-25, custom)"
   xmlns:inkscape="http://www.inkscape.org/namespaces/inkscape"
   xmlns:sodipodi="http://sodipodi.sourceforge.net/DTD/sodipodi-0.dtd"
   xmlns="http://www.w3.org/2000/svg"
   xmlns:svg="http://www.w3.org/2000/svg">
  <defs
     id="defs1" />
  <sodipodi:namedview
     id="namedview1"
     pagecolor="#ffffff"
     bordercolor="#000000"
     borderopacity="0.25"
     inkscape:showpageshadow="2"
     inkscape:pageopacity="0.0"
     inkscape:pagecheckerboard="0"
     inkscape:deskcolor="#d1d1d1"
     inkscape:zoom="2.1150518"
     inkscape:cx="117.25481"
     inkscape:cy="142.5497"
     inkscape:window-width="1920"
     inkscape:window-height="1028"
     inkscape:window-x="0"
     inkscape:window-y="0"
     inkscape:window-maximized="1"
     inkscape:current-layer="layer1" />
  <g
     inkscape:groupmode="layer"
     id="layer1"
     inkscape:label="logo">
    <rect
       style="fill:#203a55;fill-opacity:1;stroke:none;stroke-width:0.147106;stroke-dasharray:none"
       id="rect1"
       width="206"
       height="206"
       x="25"
       y="25"
       ry="51.317192" />
    <path
       style="display:inline;mix-blend-mode:normal;fill:#ffffff;fill-opacity:1;stroke:#fdffff;stroke-width:1.24586;stroke-miterlimit:3.7;stroke-dasharray:none;stroke-opacity:1"
       d="m 102.06447,203.54616 c -3.979081,-1.36078 -6.332689,-5.46663 -5.788944,-10.09876 0.251375,-2.14127 0.132243,-2.31855 -3.00024,-4.46502 l -3.262032,-2.23524 -2.372665,1.90673 c -1.960991,1.57589 -2.880886,1.90671 -5.301911,1.90671 -3.315023,0 -5.33064,-1.17768 -7.537511,-4.40402 -1.199018,-1.75294 -1.326672,-2.45564 -1.006704,-5.54176 l 0.366456,-3.53426 -3.189576,-4.41785 c -2.696256,-3.73457 -5.919865,-9.06856 -10.024584,-16.5873 -0.471034,-0.86278 -2.030506,-2.0865 -3.470962,-2.72369 -2.99544,-1.32503 -4.880095,-3.6442 -5.455955,-6.71376 -0.553371,-2.94972 1.364152,-7.17684 3.946787,-8.70047 l 1.947312,-1.14887 -0.05807,-8.42267 -0.05807,-8.42266 -2.740007,-2.72047 c -2.530205,-2.51216 -2.740009,-2.94524 -2.740009,-5.65608 0,-4.51774 2.725265,-7.75202 7.786001,-9.24027 0.556607,-0.16367 2.210863,-2.684638 3.676088,-5.602078 1.465247,-2.917488 4.374529,-7.827288 6.465072,-10.910688 L 74.045971,80.207453 73.74477,76.21906 c -0.251136,-3.325103 -0.10344,-4.301423 0.888672,-5.870782 2.669999,-4.223928 7.285032,-5.119272 12.035926,-2.335056 l 2.687232,1.574807 3.543121,-2.212944 3.543119,-2.212944 0.02664,-3.710783 c 0.03168,-4.40142 1.038169,-6.623465 3.76342,-8.307751 3.75849,-2.322883 8.94909,-1.187093 11.82876,2.588331 1.3985,1.83352 1.61974,1.918085 3.71085,1.418402 1.22304,-0.292245 6.13157,-0.704569 10.90787,-0.916272 l 8.68415,-0.384912 1.1369,-1.926895 c 2.38157,-4.036492 6.61483,-5.288874 10.88686,-3.220819 2.7369,1.324912 5.06702,4.240235 5.06702,6.339578 0,1.432062 1.2611,2.580287 4.71238,4.29053 1.45787,0.722424 4.81185,2.628888 7.45327,4.236551 4.73359,2.881008 4.82836,2.909688 6.5975,1.994833 0.99724,-0.515688 3.23855,-0.928177 5.0434,-0.928177 2.79082,0 3.54068,0.256538 5.32244,1.820928 2.82951,2.484336 3.66508,5.654544 2.4519,9.302399 -0.88573,2.663281 -0.87321,2.761609 0.60974,4.780872 0.83273,1.133905 2.84663,4.115953 4.47534,6.626737 2.56944,3.961031 3.18694,4.565087 4.66671,4.565087 2.54941,0 5.35611,1.374911 7.14389,3.499583 3.11605,3.703207 2.8353,7.513947 -0.83804,11.375427 l -2.3753,2.49698 0.73805,4.71475 c 0.40594,2.59314 0.76948,8.16606 0.80788,12.3843 l 0.0699,7.66948 2.6257,2.44925 c 2.54494,2.37389 2.6257,2.55805 2.6257,5.98708 0,3.12474 -0.2064,3.75517 -1.76712,5.39879 -0.9719,1.02349 -2.69487,2.29996 -3.82879,2.83662 -1.76042,0.83316 -2.57805,2.01414 -5.59592,8.0827 -1.94384,3.90882 -4.91963,9.21606 -6.61283,11.79381 -2.94286,4.48034 -3.04977,4.78068 -2.42526,6.81555 2.41434,7.86666 -6.5388,14.23965 -13.14407,9.35618 l -1.73752,-1.2846 -2.97288,1.90772 c -2.84931,1.82837 -2.95875,1.99632 -2.63201,4.03948 0.76219,4.76667 -2.26074,9.59462 -6.50613,10.3911 -3.76476,0.70626 -7.14226,-0.91651 -9.83727,-4.72645 -0.78861,-1.11485 -0.90978,-1.11582 -6.91955,-0.0556 -6.96371,1.22848 -15.70103,1.32118 -22.45635,0.23854 l -4.55858,-0.73069 -2.23143,2.41709 c -1.22731,1.32938 -3.01945,2.59163 -3.98256,2.80495 -0.96313,0.21335 -2.02871,0.46934 -2.36798,0.56888 -0.33929,0.0993 -1.66462,-0.17736 -2.94523,-0.61526 z m 39.55444,-8.28252 c 4.76928,-0.9324 4.77407,-0.9352 6.03919,-3.53921 l 1.2661,-2.60607 -3.68297,-3.4141 c -2.02568,-1.8778 -4.7937,-4.40401 -6.15122,-5.61387 l -2.46822,-2.19975 -2.98046,1.05857 c -2.8413,1.00916 -3.11471,1.01086 -5.85746,0.0367 -1.58233,-0.56203 -3.0119,-1.02184 -3.17679,-1.02184 -0.50648,0 -10.08392,11.13833 -10.8739,12.64601 -0.51231,0.97782 -0.57044,1.86977 -0.18768,2.877 0.5599,1.47262 3.10398,2.32782 8.86862,2.98112 3.68699,0.41783 14.31602,-0.24893 19.20463,-1.20459 z m -40.1357,-7.68941 c 1.14492,-0.54595 2.08166,-1.31308 2.08166,-1.70471 0,-0.39164 0.24495,-3.32456 0.54421,-6.51766 0.2993,-3.19308 0.70351,-7.5873 0.89824,-9.76495 l 0.35411,-3.95939 -2.39223,-1.51017 c -3.46452,-2.18701 -4.828059,-4.63894 -4.526235,-8.13902 0.28805,-3.34058 1.738995,-5.54232 4.726255,-7.17192 l 2.15961,-1.17806 0.002,-20.10332 10e-4,-20.10331 -1.80298,-0.7468 c -6.310422,-2.61396 -6.687556,-12.170668 -0.60255,-15.274997 1.32316,-0.675047 2.40576,-1.494575 2.40576,-1.821167 0,-1.288032 -1.78548,-18.010895 -2.04408,-19.14463 -0.15143,-0.66413 -1.18236,-1.640017 -2.29092,-2.16864 -1.994687,-0.951193 -2.049788,-0.939746 -5.319766,1.105632 l -3.304201,2.066783 v 56.475869 56.47586 l 2.735401,2.08862 c 3.124944,2.38608 3.525167,2.45489 6.374786,1.09598 z m 19.50042,-10.53342 c 1.26707,-1.6278 1.37051,-2.19138 1.04397,-5.68831 l -0.36247,-3.88155 -3.6974,-2.71481 -3.69741,-2.71481 -2.6486,1.62916 c -1.70742,1.05022 -2.75855,2.16258 -2.95807,3.13029 -0.65292,3.16708 -1.74614,18.67608 -1.38313,19.62205 0.20977,0.54686 0.98385,1.24149 1.71997,1.54368 1.1869,0.48721 1.86121,0.003 5.95755,-4.28474 2.54052,-2.65877 5.25204,-5.64718 6.02559,-6.64096 z m 42.96882,9.97674 c 3.36611,-2.22338 3.87177,-2.99008 3.09554,-4.69374 -0.35418,-0.77732 -8.08975,-8.1049 -17.19019,-16.28353 -9.10038,-8.17861 -21.80898,-19.64054 -28.24129,-25.47091 l -11.69512,-10.60066 3.17332,-2.95105 c 38.39805,-35.709032 52.17003,-48.582847 52.83372,-49.388215 1.22987,-1.492296 0.48108,-1.353481 -12.79645,2.372615 -10.91983,3.064464 -12.03625,3.497952 -12.52933,4.864969 -1.79924,4.988039 -4.58967,7.323167 -8.751,7.323167 -1.65604,0 -3.44651,-0.411215 -4.34026,-0.996816 -0.83678,-0.54828 -1.79929,-0.996841 -2.13896,-0.996841 -0.33967,0 -2.60207,1.379641 -5.02759,3.065857 -3.83763,2.667912 -4.41171,3.298679 -4.42299,4.859616 -0.0266,3.702748 -3.75026,9.156798 -6.25144,9.156798 -0.66327,0 -0.80273,3.37922 -0.79611,19.29119 0.005,10.61016 0.168,19.8876 0.36325,20.61657 0.19535,0.72891 0.69103,1.32533 1.10149,1.32533 0.41048,0 1.70492,1.06104 2.87653,2.35787 1.83371,2.02973 2.13019,2.75748 2.13019,5.22903 v 2.87113 l 4.15747,3.03341 4.15745,3.03335 1.7868,-1.27228 c 6.33279,-4.50934 14.87571,0.92221 13.70712,8.71492 l -0.42194,2.81376 6.12513,5.78088 6.12514,5.78085 2.6507,-0.30688 c 1.889,-0.21864 3.32778,0.0146 5.00689,0.80838 3.01628,1.42764 2.59715,1.45437 5.31193,-0.33877 z M 78.274687,174.40913 c 1.069296,-0.57228 1.139376,-1.34875 1.139376,-12.6227 v -12.01291 l -3.092473,-0.58479 c -7.380767,-1.39567 -6.717263,-1.4995 -9.592127,1.5009 -1.446816,1.50998 -2.630545,3.16609 -2.630545,3.68025 0,1.8184 11.611657,20.64903 12.732938,20.64903 0.167039,0 0.816191,-0.27443 1.442831,-0.60978 z M 185.195,169.0003 c 3.52478,-5.69823 7.9046,-14.31843 7.9046,-15.55752 0,-0.40002 -0.82863,-1.31739 -1.84139,-2.03853 -2.27323,-1.61868 -4.26399,-5.87424 -3.77964,-8.07949 0.31178,-1.41947 0.0591,-1.75381 -2.2993,-3.04213 l -2.64955,-1.44737 -1.63634,1.56109 c -4.53479,4.32632 -10.2456,3.53908 -13.76875,-1.89808 l -1.82016,-2.80899 -6.86625,-1.01892 c -12.16056,-1.80453 -19.15514,-3.22217 -19.62175,-3.97679 -0.25045,-0.40513 -0.12909,-1.06298 0.26978,-1.46199 0.75563,-0.75591 1.38218,-0.68743 19.45183,2.12602 l 6.9661,1.08463 1.42458,-2.25666 c 1.76932,-2.80279 4.40482,-4.21468 8.11641,-4.34807 l 2.85661,-0.10261 4.69342,-8.59068 4.69345,-8.5907 -0.949,-2.79517 c -1.10974,-3.26863 -0.80789,-5.23687 1.27337,-8.30381 l 1.49698,-2.205888 -1.30767,-2.39376 c -0.71921,-1.316592 -2.6131,-4.181135 -4.20863,-6.365639 -3.39806,-4.6524 -2.97303,-4.705321 -9.43786,1.175064 -8.2039,7.462198 -39.05913,36.550683 -42.02232,39.616133 l -2.94523,3.04686 1.76714,1.53225 c 0.97193,0.84272 11.52293,10.30193 23.4467,21.02048 19.44505,17.47957 24.41547,21.48333 26.73365,21.53447 0.38535,0.008 2.21199,-2.42787 4.05922,-5.41413 z M 79.414063,142.62144 c 0,-2.65677 -0.20736,-3.53427 -0.834623,-3.53427 -0.700009,0 -8.363257,3.76189 -9.130033,4.48189 -0.5256,0.49359 0.635926,1.00515 3.906648,1.72061 6.140472,1.34321 6.058008,1.37955 6.058008,-2.66823 z m -3.976032,-5.8807 3.976032,-1.88787 -0.0024,-5.39318 -0.0024,-5.39313 -6.216911,-3.15422 -6.216913,-3.15425 -2.763336,1.42104 -2.763336,1.42102 -0.164399,7.43701 c -0.180959,8.17374 -0.380039,7.65486 3.99336,10.40354 2.972759,1.86837 2.468304,1.95275 10.160999,-1.69996 z m 116.576369,0.15169 c 1.73076,-0.88312 3.36391,-1.87713 3.62921,-2.20891 0.60544,-0.75717 0.0117,-17.47389 -0.73044,-20.56964 -0.61865,-2.58023 -1.39915,-3.2787 -3.67833,-3.29183 -1.4085,-0.008 -2.03035,0.81859 -6.03771,8.02634 -2.45711,4.41943 -4.46746,8.24777 -4.46746,8.50746 0,0.2597 0.51071,1.34876 1.13489,2.4202 0.6242,1.07144 1.30897,2.9026 1.5217,4.06925 0.29628,1.62461 0.89244,2.41437 2.54664,3.37349 1.18791,0.68874 2.33414,1.25835 2.54724,1.26579 0.21311,0.008 1.8035,-0.70902 3.53426,-1.59215 z M 79.414063,114.3361 v -5.90167 l -1.619879,0.36629 c -3.705048,0.83782 -7.93145,1.943 -8.101945,2.11863 -0.100328,0.10371 -0.273553,1.07732 -0.3846,2.16402 -0.19608,1.91878 -0.06577,2.0503 4.510513,4.55766 2.591783,1.42003 4.911142,2.58523 5.154119,2.58931 0.242951,0.004 0.441792,-2.64833 0.441792,-5.89424 z m -7.068528,-7.61196 c 1.133927,-0.30142 3.188183,-0.84029 4.565088,-1.19748 l 2.50344,-0.64946 V 94.042276 c 0,-10.402223 -0.04799,-10.850208 -1.206361,-11.217791 -0.663479,-0.21048 -1.567775,-0.08305 -2.009567,0.283704 -2.223024,1.844975 -11.510183,17.546731 -11.510183,19.460281 0,0.94865 3.711862,4.62442 4.712351,4.66654 0.485975,0.0192 1.811303,-0.20952 2.945232,-0.51087 z M 119.17455,90.283013 c 1.94383,-1.457905 3.63495,-2.726688 3.75802,-2.819544 0.12312,-0.09288 0.29664,-1.702729 0.38565,-3.577513 0.0891,-1.874784 0.25345,-3.882673 0.36527,-4.461983 0.14402,-0.745512 -1.77168,-2.666376 -6.55564,-6.573456 -6.60686,-5.395847 -6.79504,-5.501544 -8.35656,-4.694063 -0.87859,0.454343 -1.73256,1.04467 -1.89765,1.311839 -0.28588,0.462552 1.14912,16.720488 1.70443,19.310736 0.28953,1.350407 5.52591,4.961543 6.47316,4.464071 0.32397,-0.17016 2.17949,-1.50216 4.12332,-2.960087 z m 29.86433,-12.496584 c 15.49884,-4.409041 18.14278,-5.303616 18.14278,-6.138624 0,-0.871319 -6.52693,-5.114856 -11.81543,-7.681896 l -3.27427,-1.589327 -1.77902,1.779023 c -1.7059,1.705896 -5.05853,3.057936 -7.59993,3.064896 -0.88213,0.0023 -1.79771,1.107361 -3.4454,4.157904 l -2.24402,4.154639 1.61112,2.324856 c 0.88613,1.278673 1.69429,2.324857 1.79587,2.324857 0.10187,0 3.97536,-1.078343 8.6083,-2.396328 z m -19.8924,-2.2956 c 0.99493,-0.312745 2.51261,-0.709057 3.37261,-0.880681 1.2073,-0.24096 2.09973,-1.286015 3.91571,-4.585534 l 2.35208,-4.27344 -1.70682,-2.324977 c -0.93874,-1.278718 -1.7068,-2.670335 -1.7068,-3.092471 0,-0.585888 -1.56824,-0.764721 -6.62674,-0.755677 -8.52684,0.01511 -14.03155,0.798937 -15.00991,2.136949 -1.68043,2.29812 -0.93422,3.495192 5.58521,8.96011 3.48271,2.919408 6.71101,5.325194 7.17397,5.34617 0.46294,0.0192 1.65577,-0.217682 2.65069,-0.530449 z"
       id="path4" />
    <path
       style="display:inline;fill:#203a55;stroke-width:0.27658;stroke-dasharray:none"
       d="m 120.47887,223.87088 c -0.60464,-0.0896 -3.47698,-0.50334 -6.38298,-0.91986 C 93.959118,220.06496 73.868119,209.94554 59.794773,195.60081 44.50026,180.0113 35.267999,161.12919 32.513581,139.80448 31.640093,133.04195 31.919619,119.19211 33.057783,112.8422 36.587498,93.149188 45.877752,75.179237 59.822397,61.071894 76.496069,44.203687 98.835433,33.945411 122.64323,32.224453 c 6.1865,-0.447182 10.86145,-0.246106 18.20717,0.783295 27.12541,3.801158 52.47002,19.886041 67.55443,42.873297 C 218.91414,91.896267 224,108.9906 224,128.29862 c 0,31.60393 -15.26799,61.0543 -40.63379,78.37842 -12.60657,8.60993 -26.64871,14.15267 -41.81666,16.50606 -3.68601,0.5719 -18.56895,1.05769 -21.07068,0.68778 z m -13.22942,-19.76923 c 2.47337,-0.69268 3.69183,-1.71289 5.84139,-4.89093 0.44064,-0.65152 0.59602,-0.64741 4.47196,0.11901 5.03873,0.99624 12.78317,1.33932 17.3907,0.77034 3.39398,-0.41908 10.02267,-1.66687 11.12834,-2.09485 0.37754,-0.14617 0.78077,0.234 1.2758,1.20303 1.65537,3.24037 4.47539,4.93303 8.19672,4.9199 6.04365,-0.0193 9.68116,-4.79199 8.58925,-11.26503 l -0.24939,-1.47844 2.89925,-1.91794 c 2.89822,-1.91729 2.89952,-1.91768 3.57714,-1.16191 1.86436,2.07932 6.45131,3.11368 9.01558,2.03301 3.64657,-1.53679 5.7705,-4.6516 5.7705,-8.46271 0,-1.18631 -0.24519,-2.74865 -0.54467,-3.47183 l -0.54466,-1.3149 2.31827,-3.3858 c 3.21324,-4.69289 5.74276,-9.25536 8.44428,-15.2308 2.27214,-5.02573 2.32426,-5.1017 3.80023,-5.54128 5.07994,-1.51289 7.7385,-6.31964 6.25587,-11.31091 -0.53992,-1.81782 -2.55362,-4.20378 -4.31094,-5.10805 l -1.35948,-0.69956 0.32983,-2.89141 c 0.45894,-4.02326 0.0676,-12.00185 -0.85608,-17.47921 -0.59934,-3.55176 -0.67367,-4.64323 -0.32396,-4.76078 1.09054,-0.36659 3.46692,-2.98043 4.25149,-4.67616 1.5058,-3.25461 0.93119,-6.527452 -1.67082,-9.516554 -1.64661,-1.891608 -3.83064,-2.862961 -6.46899,-2.877121 l -2.17461,-0.01197 -2.19257,-3.710975 c -1.206,-2.041178 -3.21348,-5.013216 -4.46114,-6.60468 l -2.26843,-2.89356 0.78042,-1.59096 c 1.06287,-2.166887 1.06114,-5.850623 -0.003,-7.907712 -1.72812,-3.338183 -4.25105,-4.783871 -8.3699,-4.796136 -2.61985,-0.0071 -3.13057,0.107044 -4.4811,1.007617 -0.83836,0.559007 -1.66001,1.016448 -1.82588,1.016448 -0.16584,0 -1.94207,-1.091543 -3.94714,-2.425632 -2.00509,-1.334087 -5.66562,-3.422568 -8.13457,-4.641047 -4.01178,-1.979926 -4.48894,-2.316713 -4.48894,-3.168074 0,-4.487016 -4.38595,-8.608221 -9.16118,-8.608221 -3.51754,0 -6.51123,1.861281 -8.01749,4.984706 l -0.69372,1.438518 -6.54618,0.07641 c -5.72341,0.06713 -11.44923,0.652052 -14.26318,1.457821 -0.60761,0.174024 -0.97467,-0.141053 -1.88494,-1.618069 -1.41313,-2.292921 -3.73054,-3.732075 -6.46841,-4.017088 -2.68318,-0.279331 -4.21135,0.05897 -6.168577,1.366908 -3.062209,2.045856 -4.407361,6.009774 -3.511801,10.348723 l 0.267048,1.293624 -3.144383,2.032847 c -1.729391,1.118088 -3.351936,2.183737 -3.60564,2.368128 -0.307729,0.223681 -0.878016,0.01445 -1.713648,-0.628248 -4.105895,-3.158783 -9.049704,-3.217199 -12.365039,-0.14616 -2.291807,2.122968 -3.217608,6.550704 -2.061072,9.857064 0.61536,1.759103 0.678768,1.587552 -1.738345,4.701528 -2.721048,3.505535 -7.277735,11.073503 -9.275495,15.405239 -1.775409,3.849636 -1.808169,3.891126 -3.26713,4.135946 -7.277973,1.22146 -10.099361,10.32012 -4.744056,15.29911 0.89244,0.82974 2.02596,1.69398 2.518921,1.92051 0.769559,0.35363 0.860135,0.57466 0.640608,1.56264 -0.337368,1.51847 -0.329713,12.64341 0.0096,14.17812 0.255262,1.15418 0.195838,1.23536 -1.560841,2.13323 -4.204736,2.14911 -5.864626,7.62421 -3.639806,12.00579 1.251014,2.46376 4.446973,4.80496 6.559141,4.80496 0.568224,0 1.262137,1.05133 3.110578,4.71254 2.900831,5.74574 5.652623,10.20962 9.226273,14.96662 l 2.705279,3.60106 -0.53088,2.29541 c -0.809018,3.49782 -0.0096,6.34906 2.430744,8.66444 2.370408,2.24945 5.15112,3.01276 8.408543,2.30814 1.449575,-0.31357 2.343649,-0.8175 3.669192,-2.06809 l 1.752575,-1.65351 3.223561,2.32793 c 1.772975,1.2803 3.27564,2.36011 3.339288,2.39954 0.06383,0.0392 -0.07247,0.77635 -0.302351,1.63764 -0.604057,2.26266 -0.139922,4.86685 1.230527,6.90348 2.365567,3.51561 5.948916,4.87771 9.912226,3.76778 z m 13.41265,-8.11301 c -3.96865,-0.57793 -6.26299,-1.20439 -6.56837,-1.79342 -0.1692,-0.3261 -0.41856,-1.11556 -0.5544,-1.75434 -0.27571,-1.29648 0.38059,-2.18774 7.63416,-10.36699 l 3.62615,-4.08893 1.79635,0.94006 c 2.40446,1.25822 5.43141,1.28686 7.99532,0.0756 l 1.82976,-0.8644 0.82361,0.7368 c 1.677,1.50018 9.64608,8.77002 10.43654,9.52088 l 0.81821,0.77711 -1.21399,2.39729 -1.21402,2.39726 -3.35887,0.80655 c -1.84739,0.44358 -4.80237,0.9851 -6.56668,1.20336 -3.62442,0.44835 -12.4439,0.45586 -15.48375,0.0117 z m -25.028621,-9.50773 -2.858616,-2.11893 0.0023,-46.57102 c 0.0014,-25.61409 0.0096,-50.985739 0.0192,-56.381443 l 0.0168,-9.810432 2.952215,-1.924727 c 1.623792,-1.058617 3.103919,-1.924776 3.289252,-1.924776 0.185278,0 0.876814,0.332039 1.53674,0.737855 0.65994,0.405816 1.46868,0.738456 1.79734,0.739225 0.49447,0.0011 0.67027,0.750695 1.0193,4.344311 0.23209,2.3886 0.57606,5.518872 0.7646,6.956159 0.18864,1.43724 0.45218,4.181952 0.58581,6.099312 l 0.24293,3.486144 -1.35449,0.494064 c -7.346618,2.679503 -7.403377,13.501008 -0.0866,16.536558 l 1.70953,0.70927 0.001,19.83793 10e-4,19.83793 -1.25364,0.41734 c -4.982739,1.65866 -7.574837,7.74024 -5.310197,12.45873 0.88942,1.85321 3.205537,3.98405 4.968147,4.57078 1.48795,0.49529 1.45543,-0.23448 0.4843,10.86926 -0.90109,10.30262 -0.99146,10.92007 -1.59898,10.92007 -0.26316,0 -1.2538,0.41582 -2.20144,0.924 -0.947648,0.50827 -1.755491,0.92119 -1.795211,0.91774 -0.03983,-0.003 -1.358593,-0.95985 -2.930833,-2.12531 z m 13.044591,0.90062 c -0.84717,-0.44101 -1.54761,-1.05137 -1.55656,-1.35631 -0.025,-0.82816 1.79695,-20.43959 1.90469,-20.50999 0.0514,-0.0328 0.66103,-0.28932 1.35549,-0.56887 0.69447,-0.27958 1.80389,-0.98749 2.46534,-1.57328 l 1.20268,-1.06506 1.19913,0.84641 c 0.65952,0.46552 2.39741,1.74919 3.86199,2.85255 l 2.66285,2.00616 -0.21216,1.70622 c -0.1308,1.05137 -0.005,2.383 0.32674,3.46961 l 0.53911,1.76343 -2.25749,2.48711 c -1.24162,1.36791 -3.87943,4.35829 -5.8618,6.64526 -1.98238,2.28697 -3.71355,4.14472 -3.84697,4.12831 -0.13344,-0.0168 -0.93574,-0.39065 -1.78291,-0.83162 z m 50.48681,-0.29957 c -2.1081,-1.11967 -3.57284,-1.27912 -6.17937,-0.67269 l -1.57287,0.36593 -2.82448,-2.72609 c -1.55344,-1.49932 -4.42947,-4.17914 -6.39113,-5.95512 -2.91677,-2.64066 -3.50487,-3.34556 -3.22744,-3.86836 0.18672,-0.35163 0.44742,-1.46236 0.57976,-2.46828 1.01,-7.67938 -7.65783,-12.85184 -14.15103,-8.44451 l -1.8687,1.26845 -2.07505,-1.59395 c -1.14125,-0.87672 -2.85833,-2.13067 -3.81566,-2.78661 l -1.74063,-1.19264 -0.002,-2.47711 c -0.002,-2.08015 -0.18215,-2.79132 -1.11816,-4.43779 -1.06575,-1.87449 -3.79882,-4.13792 -4.99648,-4.13792 -0.50846,0 -0.51141,-0.14106 -0.57765,-27.51211 l -0.0303,-12.54282 1.16844,-0.39682 c 1.82484,-0.6197 3.45324,-2.13463 4.62122,-4.29909 0.86165,-1.59685 1.06752,-2.42415 1.05072,-4.222642 l -0.0192,-2.236705 2.2436,-1.527671 c 1.23393,-0.840216 3.33669,-2.306976 4.67275,-3.25944 l 2.4292,-1.731745 1.4185,0.940896 c 2.98527,1.980193 7.05544,1.994352 9.99116,0.03432 2.17065,-1.44888 4.06974,-4.524432 4.06974,-6.590976 0,-0.761712 0.53278,-0.982007 6.32117,-2.61324 3.47666,-0.979752 9.18774,-2.596031 12.6913,-3.591719 3.50354,-0.995665 6.43374,-1.74612 6.51155,-1.667665 0.1476,0.1488 -6.62545,6.560544 -17.63992,16.699247 -2.20845,2.032872 -6.08138,5.622049 -8.60649,7.97595 -2.52511,2.35389 -7.88914,7.33716 -11.92004,11.07393 -11.55045,10.70755 -18.31198,17.09378 -18.44337,17.41964 -0.14928,0.3702 -0.16969,0.35032 5.43451,5.29528 2.51933,2.22297 6.39452,5.72239 8.61151,7.77651 3.89888,3.61238 9.42862,8.59503 32.52214,29.30434 12.96625,11.62763 12.56855,10.94336 8.15827,14.03593 -1.5089,1.05805 -2.86937,1.90027 -3.02319,1.87159 -0.15383,-0.0288 -1.17498,-0.52766 -2.26923,-1.10884 z M 74.713567,171.86657 c -3.032184,-4.13555 -5.762568,-8.48335 -8.50044,-13.53595 -2.348616,-4.33424 -2.449151,-4.61625 -1.778521,-4.98975 0.917929,-0.51119 3.893449,-3.51129 4.39865,-4.43502 0.383039,-0.70037 0.47635,-0.6974 5.405087,0.17351 l 5.015304,0.88604 v 11.73712 11.73714 l -1.081153,0.56384 c -0.594648,0.31015 -1.170599,0.56386 -1.279943,0.56386 -0.109446,0 -1.089864,-1.21531 -2.178984,-2.70071 z m 104.579953,1.68386 c -0.90694,-0.30706 -1.83668,-0.66132 -2.06604,-0.78716 -0.33855,-0.18577 -19.27807,-17.13591 -24.86775,-22.25565 -0.8062,-0.73842 -6.08302,-5.45968 -11.72627,-10.49171 -5.64331,-5.03201 -10.47206,-9.34901 -10.73064,-9.59331 -0.48019,-0.45367 4.83753,-5.65742 21.92756,-21.45756 3.51587,-3.25046 7.79414,-7.24821 9.50726,-8.88388 8.49534,-8.111068 17.45296,-16.275867 18.59651,-16.95046 0.27607,-0.162959 0.82615,0.141593 1.38773,0.768 1.17895,1.315176 7.49927,10.808927 7.49927,11.264687 0,0.187441 -0.41323,0.75744 -0.91826,1.266841 -2.60959,2.632104 -3.31845,6.879292 -1.70424,10.210612 l 0.84568,1.74527 -4.74716,8.60365 -4.7472,8.60359 -2.37809,-0.12339 c -4.00623,-0.20784 -7.49794,1.88761 -8.93793,5.36388 -0.29136,0.70348 -0.77305,1.2281 -1.12743,1.2281 -0.34025,0 -5.16144,-0.74188 -10.71364,-1.64862 -12.57088,-2.05297 -14.84959,-2.29904 -15.58553,-1.68301 -0.76546,0.6407 -0.71139,2.48271 0.0855,2.91135 0.58267,0.31343 15.10437,2.75061 22.26162,3.73622 4.40943,0.60718 4.33623,0.57344 5.04358,2.32399 0.72403,1.79192 2.7584,4.07532 4.45801,5.00379 0.7647,0.41771 2.00622,0.61476 3.87372,0.61476 3.11156,0 4.47102,-0.54632 6.68646,-2.68722 l 1.37299,-1.32676 2.38704,1.27509 2.38704,1.2751 -0.21911,1.50473 c -0.45704,3.14048 1.37025,6.90516 4.14858,8.54745 1.98219,1.17167 1.99461,1.09177 -1.19195,7.67758 -2.8938,5.9808 -8.26056,14.6842 -8.97522,14.55536 -0.10047,-0.0168 -0.92526,-0.28431 -1.83221,-0.59137 z M 74.306598,145.17118 c -2.216975,-0.46649 -4.154592,-0.86256 -4.30572,-0.88011 -0.151199,-0.0168 -0.274871,-0.20686 -0.274871,-0.42055 0,-0.37538 8.601241,-4.77986 9.344398,-4.78507 0.227041,-0.001 0.321962,1.33496 0.249699,3.50959 -0.0804,2.42045 -0.251353,3.49851 -0.549649,3.46822 -0.23832,-0.025 -2.246833,-0.42562 -4.463857,-0.8921 z m -7.695311,-6.45614 c -0.579239,-0.60979 -1.881672,-1.4205 -2.894303,-1.80152 -1.451546,-0.54612 -1.903512,-0.91764 -2.135881,-1.75571 -0.377784,-1.36244 -0.473063,-11.3012 -0.127676,-13.31635 0.23496,-1.37112 0.393001,-1.55923 1.4826,-1.76544 0.670752,-0.12673 1.839936,-0.6554 2.598145,-1.17437 l 1.378559,-0.94359 1.681464,0.96771 c 0.924841,0.53224 3.705816,1.99985 6.179976,3.26138 l 4.498489,2.29368 -0.101286,5.08851 -0.10105,5.08853 -5.452561,2.58296 c -2.998919,1.42066 -5.565264,2.583 -5.702975,2.583 -0.137755,0 -0.724367,-0.49895 -1.303608,-1.10879 z m 119.554123,-1.80437 c -2.46164,-1.3315 -2.4725,-1.34434 -2.47351,-2.92296 -0.001,-1.64594 -1.02191,-4.11629 -2.26923,-5.49112 l -0.71972,-0.79332 3.76618,-6.78373 c 2.07138,-3.73104 4.18654,-7.57365 4.70036,-8.53915 0.66158,-1.24315 1.09463,-1.68807 1.48389,-1.52455 0.30234,0.12696 1.1746,0.35527 1.93838,0.50729 0.76379,0.15192 1.44694,0.33909 1.51817,0.4157 0.0713,0.0766 0.40718,1.71943 0.74654,3.65064 0.71212,4.05232 1.14611,13.8958 0.76921,17.44588 l -0.25763,2.42657 -1.39586,0.22536 c -0.76768,0.12384 -2.23677,0.8086 -3.26458,1.52173 -1.02783,0.71314 -1.91399,1.27468 -1.96924,1.24792 -0.0547,-0.0266 -1.21305,-0.65049 -2.57293,-1.38607 z M 74.123382,117.45858 c -2.720855,-1.42508 -4.909705,-2.75568 -4.864128,-2.9569 0.04559,-0.20112 0.1884,-1.07436 0.317017,-1.94033 0.17832,-1.19992 0.420167,-1.61759 1.016448,-1.75572 0.430295,-0.0995 2.503103,-0.59397 4.606247,-1.09843 2.103145,-0.50439 3.880249,-0.86031 3.949128,-0.79083 0.06864,0.0696 0.07945,2.60288 0.0216,5.62978 l -0.101286,5.50346 z m -6.622967,-12.03594 c -0.892152,-0.94679 -1.914911,-1.87756 -2.272871,-2.06838 -0.606266,-0.32322 -0.575666,-0.51411 0.447646,-2.79049 1.684753,-3.747742 4.935602,-9.276262 8.156664,-13.87159 1.603032,-2.28696 2.992201,-4.158119 3.087049,-4.158119 0.09503,0 0.658968,0.25375 1.253591,0.563879 l 1.081153,0.563881 v 10.5174 10.517409 l -0.824521,0.18863 c -0.453479,0.10371 -2.733,0.65446 -5.065584,1.22374 l -4.241112,1.03522 z M 113.51504,92.512036 c -0.36556,-0.407377 -1.54119,-1.173288 -2.61252,-1.701984 -2.2775,-1.123896 -1.97482,0.0216 -3.0649,-11.602487 -0.42888,-4.573944 -0.83769,-8.611823 -0.90845,-8.973071 -0.0924,-0.472417 0.37049,-0.911904 1.64911,-1.565448 l 1.77775,-0.908616 6.78334,5.53879 6.78332,5.538816 -0.54472,1.315033 c -0.59576,1.438272 -0.74765,3.807576 -0.35856,5.594424 0.23928,1.098911 0.12744,1.229375 -2.9782,3.469271 -1.77473,1.280088 -3.69293,2.71188 -4.26261,3.181753 -1.26276,1.041383 -1.4238,1.04947 -2.26356,0.113525 z m 25.49514,-14.691671 -1.59202,-2.075304 2.15289,-4.139568 2.15289,-4.139592 2.62241,-0.169679 c 3.58299,-0.23184 5.89104,-1.627296 7.64178,-4.62 0.0267,-0.04607 1.97461,0.903216 4.32822,2.109455 4.79481,2.45736 10.33097,6.00492 10.64043,6.818351 0.25935,0.681745 -0.85261,1.034065 -21.74276,6.889321 -2.3178,0.649704 -4.30361,1.23096 -4.41299,1.291799 -0.10949,0.06095 -0.91528,-0.823296 -1.79085,-1.964736 z m -14.95137,-3.767136 c -2.10904,-1.684968 -9.65114,-7.884551 -10.86517,-8.931143 -0.59274,-0.510912 0.613,-3.714409 1.53069,-4.066752 1.67272,-0.642209 9.87352,-1.437186 14.82619,-1.437186 h 5.06258 l 0.68373,1.608882 c 0.37606,0.884904 1.22178,2.226935 1.87932,2.982336 l 1.19558,1.373448 -2.23914,4.317479 -2.23914,4.317504 -2.26009,0.259416 c -1.24304,0.142804 -2.87762,0.567599 -3.63242,0.944255 l -1.37237,0.684841 z"
       id="path3" />
  </g>
</svg>
