<?xml version="1.0" encoding="UTF-8" standalone="no"?>
<!-- Created with Inkscape (http://www.inkscape.org/) -->

<svg
   version="1.1"
   id="svg1"
   width="1024"
   height="1024"
   viewBox="0 0 1024 1024"
   sodipodi:docname="logo-karlsen-k-only-white.svg"
   inkscape:version="1.3.2 (091e20ef0f, 2023-11-25, custom)"
   xmlns:inkscape="http://www.inkscape.org/namespaces/inkscape"
   xmlns:sodipodi="http://sodipodi.sourceforge.net/DTD/sodipodi-0.dtd"
   xmlns="http://www.w3.org/2000/svg"
   xmlns:svg="http://www.w3.org/2000/svg">
  <defs
     id="defs1" />
  <sodipodi:namedview
     id="namedview1"
     pagecolor="#ffffff"
     bordercolor="#000000"
     borderopacity="0.25"
     inkscape:showpageshadow="2"
     inkscape:pageopacity="0.0"
     inkscape:pagecheckerboard="0"
     inkscape:deskcolor="#d1d1d1"
     inkscape:zoom="1.4955675"
     inkscape:cx="230.68166"
     inkscape:cy="235.02784"
     inkscape:window-width="1920"
     inkscape:window-height="1028"
     inkscape:window-x="0"
     inkscape:window-y="0"
     inkscape:window-maximized="1"
     inkscape:current-layer="layer1" />
  <g
     inkscape:groupmode="layer"
     id="layer1"
     inkscape:label="logo">
    <path
       style="display:inline;mix-blend-mode:normal;fill:#ffffff;fill-opacity:1;stroke:#fdffff;stroke-width:8.24141;stroke-miterlimit:3.7;stroke-dasharray:none;stroke-opacity:1"
       d="m 337.74738,1015.6552 c -26.4749,-8.9494 -42.13468,-35.95228 -38.51689,-66.41674 1.67246,-14.08251 0.87981,-15.24832 -19.9625,-29.36511 l -21.70401,-14.70033 -15.78656,12.53987 c -13.04761,10.3643 -19.16814,12.53999 -35.27655,12.53999 -22.05671,0 -35.46791,-7.74544 -50.15132,-28.96406 -7.97772,-11.52863 -8.82707,-16.15006 -6.69817,-36.44652 l 2.43821,-23.24381 -21.22189,-29.05483 C 112.92792,787.98237 91.479401,752.90225 64.168418,703.45371 61.034466,697.77932 50.658591,689.73124 41.074333,685.54073 21.144151,676.82648 8.6043073,661.57395 4.772882,641.38614 1.0910249,621.98685 13.849364,594.18652 31.032986,584.16579 l 12.956612,-7.55578 -0.38592,-55.39346 -0.385921,-55.3934 L 24.986904,447.9315 C 8.1520832,431.40984 6.7561787,428.56152 6.7561787,410.7331 c 0,-29.71194 18.1326773,-50.98285 51.8046873,-60.77069 3.703362,-1.07648 14.709954,-17.65593 24.458949,-36.8432 9.748994,-19.18738 29.106125,-51.47775 43.015755,-71.75641 l 25.29011,-36.87039 -2.00402,-26.23059 c -1.67073,-21.86822 -0.68737,-28.28928 5.91288,-38.61031 17.76501,-27.7797 48.47132,-33.66809 80.0817,-15.35718 l 17.87955,10.35719 23.57447,-14.55386 23.57435,-14.55392 0.17728,-24.404729 c 0.21056,-28.946938 6.90752,-43.56076 25.04002,-54.637752 25.00742,-15.276927 59.54343,-7.807167 78.70343,17.022719 9.3049,12.058495 10.7769,12.614655 24.69037,9.328447 8.13761,-1.922048 40.79681,-4.633728 72.57604,-6.026111 l 57.78049,-2.531456 7.56435,-12.672639 c 15.84608,-26.5468144 44.01217,-34.7833577 72.43637,-21.182399 18.2101,8.713536 33.71379,27.886847 33.71379,41.693565 0,9.418241 8.39097,16.969852 31.35393,28.217534 9.7001,4.751355 32.01601,17.289468 49.59079,27.862581 31.49519,18.94771 32.12609,19.13619 43.89684,13.11943 6.6354,-3.39156 21.54785,-6.10426 33.55644,-6.10426 18.56897,0 23.55828,1.68717 35.41325,11.97567 18.82618,16.33876 24.386,37.18824 16.31393,61.17902 -5.89338,17.5159 -5.80993,18.1625 4.05684,31.44249 5.54079,7.45741 18.94042,27.06938 29.77702,43.5822 17.09594,26.0505 21.20462,30.02329 31.05013,30.02329 16.96251,0 35.63719,9.04244 47.53229,23.01569 20.73289,24.355 18.86489,49.41708 -5.57581,74.81299 l -15.80429,16.42182 4.91066,31.00761 c 2.701,17.05427 5.11975,53.70572 5.37523,81.44773 l 0.46465,50.44013 17.47025,16.10791 c 16.9328,15.61247 17.4704,16.82366 17.4704,39.37543 0,20.55037 -1.3729,24.69663 -11.7577,35.50603 -6.4668,6.73137 -17.93047,15.12633 -25.47505,18.6558 -11.71303,5.47951 -17.15329,13.24653 -37.23272,53.15748 -12.93351,25.70722 -32.73306,60.6113 -43.99891,77.56451 -19.5807,29.46592 -20.29192,31.44122 -16.13659,44.82413 16.06394,51.73651 -43.50631,93.64991 -87.45469,61.53268 l -11.56083,-8.44842 -19.78023,12.54642 c -18.95795,12.02479 -19.68608,13.12938 -17.51219,26.56665 5.07136,31.34883 -15.04186,63.10107 -43.28898,68.33907 -25.0489,4.6449 -47.52123,-6.0276 -65.4527,-31.08429 -5.24701,-7.33216 -6.05335,-7.33857 -46.03953,-0.36606 -46.33347,8.07924 -104.46763,8.68924 -149.41464,1.56751 l -30.33069,-4.80588 -14.84706,15.89654 c -8.16589,8.74308 -20.09005,17.04438 -26.49825,18.44758 -6.40818,1.4029 -13.49811,3.0866 -15.75552,3.7414 -2.25728,0.6548 -11.07557,-1.1666 -19.59616,-4.0465 z m 263.17779,-54.4717 c 31.73268,-6.13206 31.76449,-6.15053 40.18201,-23.27626 l 8.42427,-17.1394 -24.50503,-22.45369 c -13.47781,-12.34952 -31.89517,-28.96387 -40.92756,-36.92079 l -16.4224,-14.46717 -19.83054,6.96189 c -18.90483,6.63684 -20.72397,6.64812 -38.97287,0.24166 -10.52832,-3.69623 -20.04007,-6.72028 -21.13723,-6.72028 -3.36966,0 -67.09377,73.25361 -72.34984,83.16931 -3.40884,6.43068 -3.79564,12.29685 -1.24768,18.92092 3.72531,9.68518 20.65281,15.30949 59.0079,19.60606 24.53171,2.74811 95.25243,-1.63657 127.77904,-7.92212 z m -267.045,-50.57089 c 7.61767,-3.59076 13.85036,-8.63605 13.85036,-11.21162 0,-2.57564 1.62931,-21.86482 3.62068,-42.86464 1.99149,-20.99995 4.68103,-49.89967 5.97671,-64.22138 l 2.35591,-26.03978 -15.91681,-9.93177 c -23.05133,-14.38365 -32.12372,-30.50897 -30.11547,-53.52801 1.91661,-21.97024 11.57051,-36.45029 31.44642,-47.16763 l 14.36903,-7.74797 0.0128,-132.21356 0.0128,-132.21356 -11.99623,-4.91163 c -41.98829,-17.19122 -44.49761,-80.04293 -4.01074,-100.45912 8.80383,-4.43949 16.00697,-9.82937 16.00697,-11.97728 0,-8.4711 -11.87988,-118.45234 -13.60025,-125.9086 -1.00781,-4.36781 -7.86715,-10.78585 -15.24296,-14.26266 -13.27175,-6.25568 -13.63833,-6.18041 -35.39534,7.27143 l -21.98464,13.59277 v 371.42531 371.42528 l 18.2002,13.7364 c 20.79201,15.69245 23.45472,16.14495 42.41505,7.20802 z m 129.74686,-69.27542 c 8.43065,-10.70554 9.11884,-14.41222 6.94617,-37.41065 l -2.41165,-25.5275 -24.6009,-17.85461 -24.60084,-17.85455 -17.62253,10.71455 c -11.36052,6.90715 -18.35431,14.22272 -19.68174,20.58692 -4.34438,20.82909 -11.61798,122.8272 -9.20269,129.04887 1.39623,3.59639 6.54586,8.16476 11.44372,10.15212 7.89722,3.20422 12.38375,0.0129 39.63886,-28.1794 16.90362,-17.48596 34.94477,-37.14005 40.0916,-43.67575 z m 285.89536,65.61417 C 771.91925,892.32877 775.28368,887.2864 770.11887,876.08184 767.76246,870.9697 716.29333,822.77832 655.74316,768.98986 595.19308,715.20153 510.63574,639.81987 467.83796,601.47517 L 390.024,531.75754 411.13772,512.34928 C 666.62144,277.50155 758.25391,192.83411 762.66978,187.5376 c 8.18312,-9.81465 3.20097,-8.90163 -85.14184,15.6039 -72.65557,20.15417 -80.08398,23.00518 -83.36469,31.99539 -11.97133,32.80499 -30.53749,48.16256 -58.22523,48.16256 -11.01838,0 -22.9314,-2.70459 -28.87815,-6.55597 -5.56736,-3.60576 -11.97165,-6.55591 -14.23156,-6.55591 -2.26004,0 -17.31322,9.07342 -33.45153,20.1632 -25.5337,17.54624 -29.35348,21.69459 -29.42836,31.96032 -0.17728,24.35187 -24.95257,60.22163 -41.59451,60.22163 -4.41305,0 -5.34092,22.22413 -5.29676,126.87263 0.0256,69.77996 1.1168,130.79493 2.41677,135.58891 1.29957,4.79403 4.59774,8.71671 7.32889,8.71671 2.73108,0 11.34369,6.97801 19.13908,15.5069 12.20078,13.34876 14.17337,18.13502 14.17337,34.38978 v 18.88276 l 27.6619,19.94964 27.66203,19.94964 11.88831,-8.36749 c 42.13557,-29.65659 98.97642,6.06527 91.20112,57.31554 l -2.80743,18.50542 40.754,38.01891 40.75392,38.01904 17.63675,-2.01814 c 12.56839,-1.43838 22.14144,0.0913 33.31341,5.31631 20.06894,9.38915 17.28033,9.56499 35.34312,-2.22792 z M 179.46092,824.02928 c 7.11456,-3.76362 7.58087,-8.87026 7.58087,-83.0157 v -79.00555 l -20.57601,-3.84584 c -49.1083,-9.17897 -44.69357,-9.86173 -63.82178,9.87094 -9.626295,9.9306 -17.502393,20.82236 -17.502393,24.20398 0,11.95903 77.258703,135.80238 84.719323,135.80238 1.11053,0 5.43058,-1.80452 9.59999,-4.01021 z m 711.39988,-35.5722 c 23.45248,-37.47564 52.59387,-94.16822 52.59387,-102.31731 0,-2.63103 -5.51329,-8.6641 -12.25165,-13.40695 -15.12495,-10.64542 -28.37083,-38.63294 -25.14804,-53.1363 2.07437,-9.3355 0.39231,-11.53442 -15.2985,-20.00712 l -17.62913,-9.5191 -10.8873,10.26694 C 832.0675,628.7903 794.07038,623.61265 770.6287,587.85392 l -12.1104,-18.47373 -45.68501,-6.70106 c -80.9108,-11.86802 -127.44989,-21.19136 -130.55433,-26.15449 -1.66643,-2.66419 -0.8587,-6.99079 1.79482,-9.61485 5.02777,-4.97145 9.19648,-4.52108 129.42408,13.98221 l 46.34933,7.13337 9.47853,-14.8414 c 11.7723,-18.43321 29.30759,-27.71872 54.0027,-28.59602 l 19.00666,-0.67534 31.22798,-56.49849 31.22805,-56.49867 -6.31399,-18.38292 c -7.38374,-21.49683 -5.37555,-34.44122 8.47238,-54.61159 l 9.96013,-14.50751 -8.7006,-15.74317 c -4.78528,-8.65882 -17.38638,-27.49805 -28.00244,-41.86502 -22.60898,-30.59731 -19.78126,-30.9454 -62.7953,7.72819 -54.58496,49.0766 -259.88203,240.38321 -279.59768,260.54366 l -19.5963,20.03834 11.75776,10.07712 c 6.46676,5.54246 76.6685,67.75301 156.00413,138.24567 129.37867,114.95806 162.44952,141.28966 177.87352,141.62585 2.56397,0.0583 14.71757,-15.96737 27.00808,-35.60699 z M 187.04179,614.9711 c 0,-17.47309 -1.37869,-23.24391 -5.55335,-23.24391 -4.6574,0 -55.64532,24.74067 -60.74715,29.47617 -3.4971,3.24595 4.2313,6.6103 25.99316,11.31578 40.85595,8.83385 40.30734,9.07276 40.30734,-17.54804 z m -26.45485,-38.67565 26.45485,-12.41626 -0.0192,-35.46911 -0.0192,-35.46905 -41.36463,-20.74463 -41.36468,-20.74446 -18.385988,9.34574 -18.385988,9.34573 -1.095105,48.91089 c -1.203328,53.75642 -2.528637,50.34381 26.570057,68.42105 19.779274,12.28775 16.422914,12.84282 67.606864,-11.1799 z m 775.64731,0.99783 c 11.51579,-5.80813 22.38201,-12.34547 24.14714,-14.52736 4.02848,-4.9799 0.0793,-114.92094 -4.85977,-135.28063 -4.11662,-16.96952 -9.30958,-21.56319 -24.47425,-21.64934 -9.37153,-0.0577 -13.50907,5.38362 -40.17224,52.78681 -16.34836,29.06534 -29.72449,54.24333 -29.72449,55.9511 0,1.7079 3.39803,8.87046 7.55111,15.91699 4.15309,7.04653 8.70931,19.08966 10.12474,26.76236 1.97119,10.68455 5.93798,15.87847 16.9442,22.18637 7.90374,4.52966 15.5305,8.27584 16.94822,8.3248 1.41773,0.0577 11.99969,-4.66304 23.51534,-10.4711 z M 187.04179,428.94674 v -38.81363 l -10.77799,2.40903 c -24.65178,5.51006 -52.77242,12.77849 -53.9067,13.93343 -0.66835,0.68077 -1.82029,7.08537 -2.55891,14.23219 -1.30432,12.61919 -0.43841,13.48435 30.01083,29.97453 17.24461,9.33906 32.67661,17.0021 34.29338,17.02899 1.61652,0.0259 2.93939,-17.41722 2.93939,-38.76454 z m -47.03087,-50.06145 c 7.54453,-1.98247 21.21288,-5.52653 30.3741,-7.87571 l 16.65677,-4.27129 v -71.25811 c 0,-68.41241 -0.32064,-71.35871 -8.02663,-73.77619 -4.41459,-1.38489 -10.43136,-0.54591 -13.37063,1.8658 -14.79116,12.13388 -76.58369,115.39973 -76.58369,127.98455 0,6.23904 24.69696,30.41358 31.35386,30.69058 3.23335,0.13438 12.05171,-1.37756 19.59622,-3.35963 z M 451.59035,270.75667 c 12.93344,-9.5883 24.18535,-17.93274 25.0041,-18.5435 0.81895,-0.61122 1.97357,-11.19833 2.56615,-23.52818 0.59264,-12.32986 1.68615,-25.5353 2.43047,-29.34515 0.95776,-4.90298 -11.78831,-17.53601 -43.61864,-43.23181 -43.95907,-35.48678 -45.21115,-36.18208 -55.60065,-30.87143 -5.84577,2.9881 -11.52776,6.87054 -12.62632,8.62759 -1.90202,3.04212 7.64577,109.96576 11.34061,127.00101 1.92628,8.88122 36.76692,32.63085 43.06958,29.35898 2.15558,-1.11891 14.50112,-9.87943 27.4347,-19.46751 z m 198.70391,-82.18643 c 103.1224,-28.99706 120.71408,-34.8805 120.71408,-40.37203 0,-5.73031 -43.4274,-33.63892 -78.61455,-50.521534 L 670.60819,87.223941 658.7714,98.924034 c -11.35016,11.219196 -33.65724,20.111166 -50.56661,20.156916 -5.86926,0.013 -11.96122,7.28276 -22.92418,27.34542 l -14.93068,27.3239 10.71969,15.28985 c 5.89581,8.40942 11.27289,15.28992 11.94899,15.28992 0.67579,0 26.45012,-7.09197 57.27565,-15.75987 z M 517.9391,173.47258 c 6.61984,-2.05677 16.71777,-4.66318 22.43995,-5.792 8.03276,-1.58483 13.97056,-8.45766 26.05337,-30.15764 L 582.0819,109.41761 570.72555,94.127043 c -6.2459,-8.409853 -11.35622,-17.562108 -11.35622,-20.338369 0,-3.853184 -10.43431,-5.029306 -44.09142,-4.96985 -56.73383,0.101137 -93.35969,5.254399 -99.8694,14.054141 -11.18073,15.11398 -6.21582,22.986865 37.16161,58.928055 23.17249,19.2 44.65211,35.02208 47.73237,35.16013 3.08038,0.13826 11.01683,-1.43181 17.63661,-3.48857 z"
       id="path4" />
  </g>
</svg>
