<?xml version="1.0" encoding="UTF-8" standalone="no"?>
<!-- Created with Inkscape (http://www.inkscape.org/) -->

<svg
   version="1.1"
   id="svg1"
   width="1024"
   height="1024"
   viewBox="0 0 1024 1024"
   sodipodi:docname="karlsen-k-circle-black.svg"
   inkscape:version="1.3.2 (091e20ef0f, 2023-11-25, custom)"
   xmlns:inkscape="http://www.inkscape.org/namespaces/inkscape"
   xmlns:sodipodi="http://sodipodi.sourceforge.net/DTD/sodipodi-0.dtd"
   xmlns="http://www.w3.org/2000/svg"
   xmlns:svg="http://www.w3.org/2000/svg">
  <defs
     id="defs1" />
  <sodipodi:namedview
     id="namedview1"
     pagecolor="#ffffff"
     bordercolor="#000000"
     borderopacity="0.25"
     inkscape:showpageshadow="2"
     inkscape:pageopacity="0.0"
     inkscape:pagecheckerboard="0"
     inkscape:deskcolor="#d1d1d1"
     inkscape:zoom="0.74778374"
     inkscape:cx="423.91935"
     inkscape:cy="502.15053"
     inkscape:window-width="1920"
     inkscape:window-height="1028"
     inkscape:window-x="0"
     inkscape:window-y="0"
     inkscape:window-maximized="1"
     inkscape:current-layer="g1" />
  <g
     inkscape:groupmode="layer"
     inkscape:label="Image"
     id="g1">
    <circle
       style="fill:#000000;fill-opacity:1;stroke-width:0.723241"
       id="path2"
       cx="512"
       cy="512"
       r="492" />
    <path
       style="fill:#cccccc;fill-opacity:1;stroke-width:1.4721"
       d="m 471.88727,1023.3113 c -3.22473,-0.4769 -18.54392,-2.6845 -34.04263,-4.9058 C 330.44848,1003.013 223.29651,949.04307 148.23886,872.53775 66.668062,789.39364 17.429314,688.68908 2.7390584,574.95712 -1.919516,538.89045 -0.4286298,465.02453 5.6414465,431.15835 24.466596,326.12904 74.014618,230.28919 148.38601,155.05012 237.31229,65.08633 356.45547,10.375552 483.43036,1.1970789 516.42507,-1.1879688 541.35825,-0.11530768 580.53528,5.3746666 725.20433,25.647509 860.37532,111.43354 940.82561,234.03227 996.87528,319.44675 1024,410.61662 1024,513.59274 c 0,168.55418 -81.42932,325.62297 -216.71359,418.01818 -67.23503,45.91958 -142.12637,75.48098 -223.0222,88.03238 -19.65885,3.0501 -99.0345,5.641 -112.37694,3.668 z M 401.33042,917.87552 c 13.19123,-3.69423 19.68967,-9.13533 31.15403,-26.08509 2.35027,-3.47484 3.1787,-3.4528 23.8504,0.6344 26.87328,5.31337 68.17691,7.14305 92.75048,4.10866 18.10113,-2.23516 53.45427,-8.89024 59.35099,-11.17256 2.01397,-0.7795 4.16407,1.24795 6.8043,6.41613 8.82863,17.28192 23.86879,26.30941 43.7159,26.23943 32.23284,-0.11375 51.63285,-25.5573 45.8093,-60.08016 l -1.33012,-7.88504 15.46275,-10.22908 c 15.4572,-10.2254 15.46402,-10.22762 19.07809,-6.19683 9.94328,11.08983 34.40693,16.60635 48.08314,10.84271 19.44836,-8.19623 30.77591,-24.80861 30.77591,-45.13431 0,-6.32712 -1.30726,-14.65956 -2.90501,-18.51654 l -2.90502,-7.01272 12.3641,-18.05756 c 17.13726,-25.02871 30.62811,-49.36188 45.03616,-81.23089 12.11807,-26.80387 12.39601,-27.20913 20.26801,-29.55352 27.09302,-8.06871 41.27184,-33.70478 33.36456,-60.3249 -2.87983,-9.69499 -13.61927,-22.42016 -22.99179,-27.24295 l -7.25052,-3.7309 1.75919,-15.42091 c 2.44782,-21.4574 0.36371,-64.00987 -4.56579,-93.22237 -3.19654,-18.94285 -3.59264,-24.76393 -1.72781,-25.3909 5.81609,-1.95544 18.4903,-15.89567 22.67461,-24.9396 8.0309,-17.35784 4.96628,-34.81297 -8.9111,-50.75493 -8.78205,-10.0886 -20.43005,-15.26904 -34.50133,-15.34449 l -11.59783,-0.0622 -11.69378,-19.79199 c -6.43158,-10.88558 -17.13808,-26.73652 -23.79223,-35.22429 l -12.09843,-15.43234 4.16219,-8.48518 c 5.66885,-11.55673 5.65948,-31.20327 -0.02,-42.17439 -9.21673,-17.80368 -22.67233,-25.51403 -44.6395,-25.57944 -13.97247,-0.0416 -16.69631,0.57088 -23.89926,5.37401 -4.47123,2.98154 -8.85328,5.42097 -9.73789,5.42097 -0.88461,0 -10.35779,-5.8215 -21.0515,-12.93667 -10.69371,-7.11518 -30.21664,-18.25371 -43.38429,-24.7523 -21.39603,-10.55951 -23.94118,-12.35572 -23.94118,-16.89633 0,-23.93074 -23.3916,-45.910495 -48.85952,-45.910495 -18.76013,0 -34.72657,9.926815 -42.75991,26.585095 l -3.69982,7.67212 -34.91297,0.40763 c -30.52481,0.35641 -61.06279,3.47765 -76.07043,7.77505 -3.24059,0.92793 -5.19813,-0.75247 -10.05296,-8.62971 -7.53657,-12.22853 -19.89596,-19.90403 -34.49794,-21.42409 -14.31032,-1.48971 -22.46062,0.31633 -32.89905,7.29017 -16.3319,10.91124 -23.50602,32.05214 -18.72962,55.19314 l 1.42405,6.89941 -16.77,10.84186 c -9.22346,5.96308 -17.87699,11.64657 -19.23003,12.63002 -1.64138,1.19303 -4.68287,0.078 -9.13945,-3.35054 -21.8982,-16.84684 -48.26512,-17.1584 -65.94693,-0.77926 -12.22293,11.32242 -17.16063,34.93706 -10.99231,52.57095 3.28176,9.38182 3.62005,8.46689 -9.2712,25.07472 -14.51235,18.69632 -38.8146,59.05889 -49.46927,82.16138 -9.46883,20.53128 -9.6436,20.75255 -17.42472,22.0584 -38.81586,6.51428 -53.863266,55.04065 -25.30163,81.59522 4.75973,4.42525 10.80511,9.03448 13.43418,10.24272 4.10432,1.88619 4.58735,3.06449 3.41664,8.33398 -1.79928,8.09861 -1.75852,67.43165 0.0519,75.61664 1.36159,6.15569 1.0449,6.58851 -8.32445,11.37733 -22.4252,11.46184 -31.277935,40.66243 -19.41221,64.03089 6.67204,13.13993 23.71706,25.62638 34.98213,25.62638 3.03033,0 6.73139,5.60715 16.58965,25.13358 15.47115,30.64391 30.14736,54.45125 49.20684,79.82197 l 14.42808,19.20569 -2.83144,12.24214 c -4.31465,18.65507 -0.0484,33.8617 12.96405,46.21037 12.6421,11.99709 27.47262,16.06807 44.8454,12.31009 7.73116,-1.67236 12.49963,-4.36003 19.56915,-11.02984 l 9.34716,-8.81868 17.19231,12.41546 c 9.45575,6.8285 17.46998,12.58743 17.80935,12.79765 0.33937,0.21021 -0.38631,4.14061 -1.61265,8.73417 -3.22161,12.0675 -0.74594,25.95643 6.56285,36.81851 12.6163,18.75001 31.72744,26.01446 52.86507,20.09484 z m 71.53404,-43.26944 c -21.16613,-3.08237 -33.40271,-6.42341 -35.0313,-9.56479 -0.90173,-1.73935 -2.23234,-5.94976 -2.95691,-9.3565 -1.47069,-6.91465 2.02965,-11.66803 40.71548,-55.29072 l 19.33951,-21.8075 9.58064,5.01354 c 12.82364,6.71061 28.96734,6.86329 42.64156,0.40331 l 9.75879,-4.61026 4.39267,3.92952 c 8.94389,8.00085 51.44562,46.77366 55.66151,50.778 l 4.36367,4.14471 -6.47465,12.78548 -6.47465,12.78549 -17.91404,4.30153 c -9.85271,2.36585 -25.61273,5.25389 -35.02226,6.41792 -19.33016,2.39126 -66.36741,2.43128 -82.58002,0.0702 z m -133.48601,-50.70778 -15.24592,-11.30097 0.0119,-248.37887 c 0.008,-136.60837 0.0515,-271.92386 0.0996,-300.70109 l 0.0874,-52.32221 15.74516,-10.26533 c 8.6602,-5.64592 16.55419,-10.2653 17.54253,-10.2653 0.98837,0 4.67659,1.77082 8.19601,3.93515 3.51945,2.16432 7.83307,3.93847 9.58584,3.94252 2.63699,0.005 3.57495,4.00373 5.43622,23.16968 1.23718,12.73927 3.07222,29.43399 4.07792,37.0994 1.00571,7.66538 2.41162,22.3038 3.12429,32.52982 l 1.29576,18.59276 -7.22407,2.63482 c -39.18184,14.2907 -39.4845,72.00545 -0.46254,88.19495 l 9.11753,3.78268 0.008,105.80241 0.008,105.8024 -6.68604,2.22564 c -26.57461,8.84616 -40.39911,41.28111 -28.32101,66.4466 4.74358,9.88359 17.09615,21.24818 26.49667,24.37741 7.93573,2.64166 7.76233,-1.25061 2.58291,57.9694 -4.80573,54.9473 -5.28791,58.24035 -8.52786,58.24035 -1.40357,0 -6.68709,2.21766 -11.74117,4.92815 -5.05406,2.7105 -9.36254,4.91297 -9.57438,4.8944 -0.21186,-0.0186 -7.24586,-5.11922 -15.63113,-11.33477 z m 69.57123,4.80301 c -4.51819,-2.35203 -8.25395,-5.60702 -8.30167,-7.23332 -0.12958,-4.417 9.58366,-109.01132 10.15834,-109.38673 0.2723,-0.17788 3.52549,-1.54312 7.22933,-3.03386 3.70383,-1.49074 9.62061,-5.26662 13.14845,-8.39084 l 6.41421,-5.6804 6.39537,4.51424 c 3.51745,2.48285 12.78623,9.32897 20.59727,15.21365 l 14.20191,10.69941 -1.13241,9.09987 c -0.6978,5.60739 -0.0289,12.70939 1.7428,18.50472 l 2.87524,9.40486 -12.03987,13.26464 c -6.62191,7.29555 -20.69027,23.24415 -31.26303,35.44134 -10.57275,12.19717 -19.80546,22.10516 -20.51711,22.01777 -0.71165,-0.0874 -4.99063,-2.08332 -9.50883,-4.43535 z m 269.26296,-1.59766 c -11.24326,-5.97148 -19.05517,-6.82188 -32.95658,-3.58755 l -8.38868,1.95169 -15.0639,-14.53904 c -8.28515,-7.99648 -23.62389,-22.28879 -34.0861,-31.76066 -15.55602,-14.08352 -18.69251,-17.84289 -17.21299,-20.6313 0.99508,-1.87533 2.3865,-7.79921 3.0921,-13.16418 5.38657,-40.95665 -40.8419,-68.54305 -75.47215,-45.03731 l -9.96646,6.76485 -11.06688,-8.50114 c -6.08679,-4.67563 -15.24437,-11.36343 -20.35018,-14.8618 l -9.28332,-6.36065 -0.0183,-13.21132 c -0.0154,-11.09405 -0.97114,-14.88713 -5.96366,-23.66814 -5.68406,-9.99728 -20.26041,-22.06895 -26.64791,-22.06895 -2.71169,0 -2.72749,-0.75262 -3.08073,-146.73123 l -0.16188,-66.89512 6.23171,-2.11632 c 9.73246,-3.3052 18.41726,-11.38464 24.6464,-22.92849 4.59554,-8.51644 5.69349,-12.92869 5.60401,-22.52063 l -0.11124,-11.92907 11.96572,-8.14769 c 6.58114,-4.48121 17.79578,-12.30385 24.92145,-17.38363 l 12.95574,-9.23597 7.56526,5.01812 c 15.92154,10.56095 37.62905,10.63657 53.28628,0.1856 11.57685,-7.72734 21.70513,-24.13029 21.70513,-35.15181 0,-4.06249 2.84197,-5.23737 33.71308,-13.93729 18.5422,-5.22544 49.00129,-13.84561 67.68686,-19.15592 18.68559,-5.31031 34.31328,-9.3127 34.72817,-8.8942 0.78672,0.79352 -35.33564,34.98963 -94.07947,89.06265 -11.77848,10.84194 -32.43404,29.9842 -45.90128,42.53833 -13.46722,12.55415 -42.07531,39.13158 -63.57351,59.06097 -61.60245,57.10709 -97.66394,91.1669 -98.3647,92.90479 -0.79617,1.97443 -0.90494,1.86843 28.98416,28.24156 13.43639,11.8558 34.10397,30.51938 45.92796,41.47464 20.79396,19.26614 50.28594,45.84015 173.45135,156.28985 69.15353,62.01403 67.03241,58.36474 43.51089,74.85823 -8.04757,5.64303 -15.3032,10.13489 -16.12363,9.98191 -0.82044,-0.15297 -6.26664,-2.81417 -12.10265,-5.91378 z m -450.40695,-81.1486 c -16.17173,-22.0563 -30.73376,-45.24457 -45.33574,-72.19166 -12.52599,-23.11598 -13.06211,-24.62012 -9.48533,-26.61203 4.89549,-2.72625 20.76492,-18.72702 23.45933,-23.65349 2.04296,-3.73533 2.54053,-3.71937 28.82714,0.92449 l 26.74827,4.72545 v 62.59803 62.59804 l -5.76607,3.00752 c -3.17137,1.65413 -6.24323,3.00752 -6.82637,3.00752 -0.58316,0 -5.81269,-6.48175 -11.62123,-14.40387 z m 557.75979,8.98064 c -4.83711,-1.63768 -9.79562,-3.52685 -11.01895,-4.19815 -1.80556,-0.99081 -102.81654,-91.39166 -132.62809,-118.69692 -4.29964,-3.93817 -32.44272,-29.11822 -62.54019,-55.95572 -30.09748,-26.83747 -55.85094,-49.86145 -57.22992,-51.16438 -2.56095,-2.41973 25.80015,-30.17291 116.94701,-114.44016 18.75125,-17.33596 41.56873,-38.65733 50.70545,-47.38083 45.30829,-43.25907 93.08238,-86.80454 99.18129,-90.40246 1.47246,-0.86866 4.40618,0.75491 7.40126,4.09602 6.28778,7.01415 39.99605,57.64763 39.99605,60.07839 0,0.99925 -2.20383,4.03968 -4.89738,6.75649 -13.91768,14.03789 -17.69843,36.68952 -9.08927,54.4565 l 4.51038,9.30823 -25.31832,45.88596 -25.31835,45.88594 -12.68319,-0.65788 c -21.3666,-1.10829 -39.98891,10.06735 -47.66903,28.60724 -1.55428,3.75204 -4.12279,6.54995 -6.01293,6.54995 -1.81477,0 -27.52752,-3.95671 -57.13942,-8.79266 -67.04461,-10.94918 -79.19792,-12.26159 -83.12274,-8.97614 -4.08245,3.41739 -3.79408,13.24127 0.4558,15.52731 3.10763,1.67161 80.55661,14.67001 118.72867,19.92646 23.51695,3.23834 23.12651,3.05846 26.89899,12.39475 3.86157,9.55677 14.71147,21.73488 23.77619,26.68676 4.07828,2.22789 10.69968,3.27872 20.65973,3.27872 16.59506,0 23.84554,-2.91384 35.66118,-14.33165 l 7.32265,-7.07606 12.73085,6.80046 12.73084,6.80046 -1.16774,8.0252 c -2.43721,16.74925 7.30798,36.82753 22.12584,45.58636 10.57161,6.24888 10.63775,5.82281 -6.35709,40.94715 -15.43364,31.89768 -44.05626,78.31585 -47.86767,77.62849 -0.53745,-0.097 -4.93481,-1.51614 -9.7719,-3.15383 z M 225.63522,603.5797 c -11.82401,-2.48808 -22.15779,-4.60037 -22.96398,-4.69397 -0.80619,-0.0936 -1.46578,-1.10287 -1.46578,-2.2428 0,-2.00184 45.87335,-25.49254 49.83672,-25.52024 1.21011,-0.009 1.71724,7.11959 1.33167,18.71774 -0.42914,12.90906 -1.34038,18.6586 -2.93158,18.49721 -1.26987,-0.12879 -11.98304,-2.26987 -23.80705,-4.75794 z m -41.04174,-34.43279 c -3.08932,-3.25243 -10.03567,-7.57606 -15.43633,-9.60808 -7.74164,-2.91283 -10.15199,-4.89418 -11.39129,-9.36379 -2.01479,-7.26647 -2.52291,-60.2732 -0.68078,-71.02062 1.2534,-7.31266 2.09602,-8.31601 7.90721,-9.41561 3.57736,-0.67692 9.81288,-3.4954 13.85666,-6.26331 l 7.35235,-5.03252 8.96786,5.16109 c 4.93233,2.83861 19.76423,10.66591 32.95979,17.39401 l 23.99192,12.23295 -0.53935,27.1388 -0.53934,27.13881 -29.08027,13.77587 c -15.99414,7.57675 -29.68127,13.77588 -30.41585,13.77588 -0.73459,0 -3.86324,-2.66107 -6.95258,-5.91348 z m 637.62198,-9.62341 c -13.12881,-7.10126 -13.18678,-7.16977 -13.19207,-15.589 -0.005,-8.77839 -5.45025,-21.95367 -12.10253,-29.28605 l -3.83857,-4.23099 20.08628,-36.17985 c 11.04746,-19.89892 22.32839,-40.3929 25.06874,-45.54219 3.52839,-6.63009 5.83795,-9.00296 7.91399,-8.1309 1.61238,0.67729 6.26445,1.8947 10.33798,2.70535 4.07351,0.81065 7.71717,1.80835 8.09697,2.21711 0.37982,0.40878 2.1715,9.17034 3.98153,19.4702 3.798,21.61234 6.11271,74.11093 4.10245,93.04464 l -1.37407,12.94183 -7.44449,1.2007 c -4.09449,0.66039 -11.92955,4.31252 -17.41126,8.11585 -5.48174,3.80333 -10.20786,6.79832 -10.5025,6.65554 -0.29463,-0.14281 -6.46974,-3.46929 -13.72245,-7.39224 z M 224.65803,455.77908 c -14.51127,-7.60037 -26.1852,-14.69691 -25.94203,-15.77008 0.24315,-1.07317 1.00392,-5.72999 1.69056,-10.34844 0.95148,-6.39975 2.24099,-8.62714 5.42103,-9.36385 2.29492,-0.53165 13.34991,-3.16784 24.56667,-5.85819 11.21673,-2.69034 20.69462,-4.58838 21.06195,-4.21786 0.36735,0.37051 0.42449,13.88197 0.12695,30.02547 l -0.54097,29.35181 z m -35.32267,-64.19153 c -4.758,-5.04967 -10.21287,-10.01382 -12.12192,-11.03149 -3.23352,-1.72366 -3.07015,-2.74196 2.38753,-14.88258 8.9854,-19.98802 26.32317,-49.47347 43.50217,-73.98184 8.54953,-12.19717 15.95849,-22.17667 16.46433,-22.17667 0.50585,0 3.51445,1.35337 6.68582,3.00751 l 5.76607,3.0075 v 56.09276 56.09276 l -4.39736,1.00573 c -2.41855,0.55315 -14.57599,3.49014 -27.01655,6.52662 l -22.61918,5.52092 z m 245.41143,-68.85661 c -1.94955,-2.17282 -8.21959,-6.25759 -13.93345,-9.07726 -12.14667,-5.99415 -10.53237,0.11705 -16.34603,-61.88007 -2.28754,-24.39436 -4.46781,-45.9297 -4.84508,-47.85633 -0.49336,-2.51948 1.97596,-4.8635 8.79531,-8.34897 l 9.48127,-4.84601 36.17771,29.54026 36.17773,29.54026 -2.90536,7.01354 c -3.17761,7.67077 -3.98748,20.30697 -1.91227,29.83691 1.27624,5.86082 0.67894,6.55659 -15.88353,18.50289 -9.4653,6.82717 -19.69566,14.46332 -22.73413,16.96921 -6.7346,5.55413 -7.59348,5.59723 -12.07217,0.60557 z m 135.97403,-78.35561 -8.49065,-11.06829 11.48205,-22.07776 11.48206,-22.07774 13.98623,-0.90534 c 19.10917,-1.23696 31.41876,-8.679 40.75608,-24.64008 0.14364,-0.24551 10.53134,4.81718 23.08383,11.25042 25.5723,13.10597 55.09844,32.02626 56.74898,36.36464 1.38327,3.63585 -4.54722,5.51495 -115.9614,36.7431 -12.36145,3.46476 -22.95264,6.56503 -23.53594,6.88947 -0.58332,0.32441 -4.88138,-4.39087 -9.55124,-10.47842 z M 490.9802,224.28392 c -11.24812,-8.98657 -51.47267,-42.05101 -57.94761,-47.63273 -3.16116,-2.72508 3.26953,-19.81028 8.16364,-21.68936 8.92134,-3.4253 52.6589,-7.66504 79.07307,-7.66504 h 27.00056 l 3.64665,8.58074 c 2.00564,4.71943 6.51601,11.87703 10.02301,15.90578 l 6.37638,7.32502 -11.94206,23.02662 -11.94207,23.02664 -12.05377,1.38358 c -6.62957,0.76095 -15.34741,3.02721 -19.373,5.03611 l -7.31926,3.65255 z"
       id="path3" />
  </g>
</svg>
