<?xml version="1.0" encoding="UTF-8" standalone="no"?>
<!-- Created with Inkscape (http://www.inkscape.org/) -->

<svg
   version="1.1"
   id="svg1"
   width="1024"
   height="1024"
   viewBox="0 0 1024 1024"
   sodipodi:docname="logo-k-only-blue.svg"
   inkscape:version="1.3.2 (091e20ef0f, 2023-11-25, custom)"
   xmlns:inkscape="http://www.inkscape.org/namespaces/inkscape"
   xmlns:sodipodi="http://sodipodi.sourceforge.net/DTD/sodipodi-0.dtd"
   xmlns="http://www.w3.org/2000/svg"
   xmlns:svg="http://www.w3.org/2000/svg">
  <defs
     id="defs1" />
  <sodipodi:namedview
     id="namedview1"
     pagecolor="#ffffff"
     bordercolor="#000000"
     borderopacity="0.25"
     inkscape:showpageshadow="2"
     inkscape:pageopacity="0.0"
     inkscape:pagecheckerboard="0"
     inkscape:deskcolor="#d1d1d1"
     inkscape:zoom="0.74778375"
     inkscape:cx="429.26849"
     inkscape:cy="431.27442"
     inkscape:window-width="1920"
     inkscape:window-height="1028"
     inkscape:window-x="0"
     inkscape:window-y="0"
     inkscape:window-maximized="1"
     inkscape:current-layer="layer1" />
  <g
     inkscape:groupmode="layer"
     id="layer1"
     inkscape:label="logo">
    <path
       style="display:inline;mix-blend-mode:normal;fill:#203a55;fill-opacity:1;stroke:#203a55;stroke-width:8.24138;stroke-miterlimit:3.7;stroke-dasharray:none;stroke-opacity:1"
       d="m 337.74734,1015.6552 c -26.47485,-8.9494 -42.13466,-35.9523 -38.51684,-66.41673 1.67245,-14.08248 0.87981,-15.24828 -19.96251,-29.36509 l -21.70402,-14.70037 -15.78654,12.53995 c -13.04762,10.36423 -19.16814,12.53992 -35.27654,12.53992 -22.05673,0 -35.46793,-7.74537 -50.15134,-28.96404 -7.97773,-11.52864 -8.82707,-16.1501 -6.69817,-36.44652 l 2.4382,-23.24383 -21.22189,-29.05476 C 112.92791,787.98237 91.479394,752.90231 64.168406,703.45373 61.034456,697.77939 50.658584,689.73122 41.074322,685.54078 21.14414,676.82647 8.604296,661.57392 4.7728712,641.38617 1.0910134,621.98686 13.849354,594.18653 31.032974,584.16581 l 12.956614,-7.5558 -0.38592,-55.39344 -0.38592,-55.39341 -18.230855,-17.89162 C 8.1520726,431.40986 6.7561675,428.56152 6.7561675,410.7331 c 0,-29.71191 18.1326785,-50.98284 51.8046885,-60.77067 3.703362,-1.07646 14.709953,-17.65594 24.45895,-36.8432 9.748994,-19.18738 29.106124,-51.47777 43.015754,-71.75642 l 25.29012,-36.87038 -2.00403,-26.2306 c -1.67073,-21.86822 -0.68736,-28.28928 5.9129,-38.6103 17.765,-27.77971 48.4713,-33.66809 80.08169,-15.35719 l 17.87957,10.3572 23.57445,-14.55386 23.57436,-14.55391 0.1773,-24.404741 c 0.21049,-28.946943 6.9075,-43.560768 25.03998,-54.637757 25.00745,-15.27693 59.54348,-7.807172 78.70345,17.022716 9.30491,12.058496 10.77691,12.614657 24.6904,9.328448 8.1376,-1.922048 40.79682,-4.633727 72.57602,-6.026111 l 57.7805,-2.531455 7.56436,-12.67264 c 15.84609,-26.5468154 44.01215,-34.7833591 72.43638,-21.1824 18.2101,8.713536 33.7138,27.886849 33.7138,41.693567 0,9.418239 8.39095,16.969853 31.35391,28.217532 9.70009,4.751359 32.01602,17.289464 49.59079,27.862591 31.49518,18.9477 32.12609,19.13619 43.89684,13.11941 6.63542,-3.39155 21.54785,-6.10425 33.55642,-6.10425 18.56898,0 23.55831,1.68717 35.41328,11.97568 18.82617,16.33876 24.386,37.18822 16.31391,61.179 -5.89336,17.51592 -5.8099,18.16251 4.05684,31.4425 5.5408,7.45741 18.94043,27.06938 29.77705,43.58221 17.09594,26.05049 21.2046,30.0233 31.05011,30.0233 16.96251,0 35.63721,9.04241 47.5323,23.01565 20.73304,24.35502 18.86504,49.41712 -5.57581,74.813 l -15.80429,16.42183 4.91066,31.00763 c 2.70099,17.05428 5.11976,53.70569 5.37523,81.44774 l 0.46466,50.44012 17.47039,16.10791 c 16.9328,15.61247 17.4702,16.82365 17.4702,39.3754 0,20.55039 -1.3729,24.69663 -11.7575,35.50608 -6.4669,6.73134 -17.93061,15.12631 -25.4752,18.65576 -11.71303,5.47952 -17.15331,13.24654 -37.23272,53.1575 -12.93348,25.70722 -32.73306,60.61127 -43.99892,77.56446 -19.58068,29.46591 -20.29193,31.44126 -16.13656,44.82418 16.06394,51.7365 -43.50635,93.64989 -87.45472,61.53266 l -11.56082,-8.44843 -19.78024,12.54649 c -18.95793,12.02475 -19.68607,13.1293 -17.51219,26.56663 5.07137,31.34875 -15.04187,63.10102 -43.28898,68.33902 -25.04891,4.645 -47.52123,-6.0276 -65.45269,-31.08421 -5.24702,-7.33218 -6.05338,-7.33865 -46.03958,-0.3661 -46.33343,8.07925 -104.4676,8.68921 -149.41461,1.56746 l -30.3307,-4.80584 -14.84707,15.89667 c -8.16588,8.74292 -20.09003,17.04432 -26.49823,18.44752 -6.40819,1.4029 -13.49813,3.0866 -15.75552,3.7413 -2.2573,0.6548 -11.0756,-1.1665 -19.59616,-4.0464 z m 263.17783,-54.47167 c 31.73272,-6.13211 31.76452,-6.1505 40.18202,-23.27618 l 8.42428,-17.13953 -24.50504,-22.45368 c -13.47782,-12.3495 -31.89519,-28.96382 -40.92756,-36.92076 l -16.42238,-14.46716 -19.83056,6.96188 c -18.90483,6.63688 -20.72398,6.64814 -38.97287,0.24188 -10.52833,-3.69617 -20.04007,-6.72023 -21.13722,-6.72023 -3.3697,0 -67.09381,73.25366 -72.34987,83.16931 -3.40881,6.43067 -3.79563,12.29683 -1.24766,18.92094 3.7253,9.68512 20.6528,15.30952 59.0079,19.60608 24.5317,2.74815 95.25243,-1.63664 127.77904,-7.92218 z m -267.045,-50.5709 c 7.61766,-3.59074 13.85037,-8.63604 13.85037,-11.21164 0,-2.57559 1.62932,-21.86477 3.62069,-42.86465 1.99148,-20.99991 4.68102,-49.89966 5.97667,-64.22134 l 2.35593,-26.03971 -15.9168,-9.93187 c -23.05134,-14.38365 -32.12373,-30.50895 -30.11548,-53.52804 1.91661,-21.97015 11.57049,-36.45024 31.44641,-47.16762 l 14.36903,-7.74792 0.0118,-132.21357 0.0119,-132.21357 -11.99621,-4.91163 c -41.9883,-17.19122 -44.49762,-80.04291 -4.01074,-100.45912 8.80385,-4.43949 16.00695,-9.82938 16.00695,-11.97728 0,-8.47111 -11.87986,-118.45234 -13.60024,-125.90859 -1.00779,-4.36781 -7.86712,-10.78587 -15.24295,-14.26266 -13.27175,-6.25568 -13.63834,-6.18042 -35.39534,7.27143 l -21.98461,13.59277 v 371.42532 371.42528 l 18.20014,13.7364 c 20.79202,15.69245 23.45477,16.14491 42.41508,7.20801 z m 129.74685,-69.27536 c 8.43067,-10.70563 9.11885,-14.41223 6.94616,-37.41073 l -2.41163,-25.52743 -24.60089,-17.85468 -24.60084,-17.85455 -17.62254,10.71458 c -11.36051,6.90714 -18.3543,14.22271 -19.68173,20.58694 -4.34439,20.82909 -11.61799,122.82716 -9.20271,129.0488 1.39623,3.59646 6.54587,8.16484 11.44373,10.15216 7.89722,3.20424 12.38373,0.0119 39.63886,-28.17936 16.90361,-17.48599 34.94475,-37.14006 40.09159,-43.67573 z m 285.89539,65.61412 c 22.39688,-14.6226 25.76129,-19.66497 20.59647,-30.8695 C 767.76247,870.96972 716.29334,822.77836 655.7432,768.98988 595.19309,715.20156 510.63574,639.8199 467.83797,601.47519 L 390.024,531.75757 411.13774,512.34928 C 666.62144,277.50157 758.25395,192.83412 762.6698,187.53761 c 8.1831,-9.81465 3.20097,-8.90163 -85.14184,15.6039 -72.65559,20.15419 -80.084,23.00518 -83.36471,31.99539 -11.97135,32.80499 -30.53749,48.16256 -58.22524,48.16256 -11.01834,0 -22.93139,-2.70457 -28.87814,-6.55598 -5.56738,-3.60574 -11.97167,-6.55588 -14.23155,-6.55588 -2.26005,0 -17.31321,9.07338 -33.45153,20.16317 -25.53371,17.54627 -29.3535,21.69463 -29.42837,31.96033 -0.1773,24.35189 -24.95258,60.22166 -41.59449,60.22166 -4.41309,0 -5.34094,22.22408 -5.29679,126.87262 0.0257,69.77995 1.1168,130.79491 2.41676,135.5889 1.29959,4.79407 4.59779,8.7167 7.32891,8.7167 2.73109,0 11.34367,6.97799 19.13908,15.50691 12.20077,13.34873 14.17337,18.13502 14.17337,34.38978 v 18.88274 l 27.66192,19.94967 27.662,19.94966 11.88832,-8.36748 c 42.13557,-29.65667 98.97643,6.06521 91.20114,57.3155 l -2.80742,18.50539 40.75399,38.01894 40.7539,38.019 17.63675,-2.01811 c 12.56839,-1.43836 22.14144,0.0912 33.31341,5.31629 20.06897,9.3892 17.28034,9.56502 35.34314,-2.22788 z M 179.46094,824.02925 c 7.11455,-3.76355 7.58085,-8.87017 7.58085,-83.01562 v -79.00561 l -20.57601,-3.84583 c -49.1083,-9.17896 -44.69357,-9.86178 -63.82178,9.87092 -9.626303,9.93066 -17.502401,20.82244 -17.502401,24.20398 0,11.95901 77.258711,135.80242 84.719321,135.80242 1.11053,0 5.43059,-1.80455 9.60002,-4.01026 z m 711.39988,-35.57212 c 23.45247,-37.47568 52.59387,-94.16826 52.59387,-102.31732 0,-2.63103 -5.51328,-8.66411 -12.25165,-13.40696 -15.12493,-10.64543 -28.37082,-38.63297 -25.14803,-53.13633 2.07436,-9.33548 0.3923,-11.53439 -15.29853,-20.00709 l -17.62911,-9.51912 -10.8873,10.26697 c -30.17254,28.45306 -68.16969,23.27539 -91.61134,-12.48336 l -12.11042,-18.47371 -45.685,-6.70104 c -80.91079,-11.86806 -127.44988,-21.19139 -130.55434,-26.1545 -1.66644,-2.66418 -0.85869,-6.99079 1.7948,-9.61485 5.0278,-4.97145 9.1965,-4.52109 129.4241,13.9822 l 46.34933,7.13337 9.47853,-14.84139 c 11.7723,-18.43323 29.30759,-27.71874 54.0027,-28.59605 l 19.00666,-0.67532 31.228,-56.49848 31.22802,-56.49869 -6.31396,-18.3829 c -7.38375,-21.49684 -5.37558,-34.44124 8.47237,-54.61159 l 9.96015,-14.50754 -8.70063,-15.74317 c -4.78527,-8.65882 -17.38636,-27.49802 -28.00241,-41.865 -22.60901,-30.59731 -19.78126,-30.94541 -62.79532,7.72819 -54.58498,49.07659 -259.88204,240.38321 -279.59769,260.54366 l -19.5963,20.03832 11.75776,10.07712 c 6.46678,5.54248 76.66851,67.75306 156.00415,138.24569 129.37866,114.9581 162.44953,141.28963 177.8735,141.62583 2.56399,0.0579 14.7176,-15.96734 27.00809,-35.60694 z M 187.04179,614.97111 c 0,-17.4731 -1.37868,-23.24388 -5.55335,-23.24388 -4.6574,0 -55.64533,24.74067 -60.74715,29.47616 -3.49709,3.24594 4.23129,6.61027 25.99316,11.31577 40.85595,8.83389 40.30734,9.07273 40.30734,-17.54805 z m -26.45485,-38.67564 26.45485,-12.41624 -0.0191,-35.46913 -0.0192,-35.46904 -41.36464,-20.74464 -41.36468,-20.74444 -18.385983,9.34571 -18.385991,9.34574 -1.095104,48.91091 c -1.203327,53.7564 -2.528639,50.34379 26.570055,68.42104 19.779273,12.28775 16.422923,12.84281 67.606863,-11.17991 z m 775.64734,0.99783 c 11.51578,-5.80812 22.38201,-12.34548 24.14714,-14.52737 4.02848,-4.97987 0.0794,-114.92095 -4.85979,-135.28064 -4.11659,-16.96954 -9.30955,-21.5632 -24.47424,-21.64932 -9.37152,-0.0579 -13.50905,5.38361 -40.17222,52.78682 -16.34835,29.06533 -29.72452,54.24331 -29.72452,55.95108 0,1.70791 3.39802,8.87048 7.55113,15.91701 4.15309,7.04654 8.70932,19.08964 10.12473,26.76236 1.97119,10.68454 5.93797,15.87847 16.9442,22.18634 7.90373,4.52969 15.53048,8.27587 16.9482,8.32481 1.41776,0.0579 11.99971,-4.66302 23.51537,-10.47109 z M 187.04179,428.94676 v -38.81363 l -10.77798,2.40903 c -24.65178,5.51007 -52.77245,12.7785 -53.9067,13.93341 -0.66836,0.68078 -1.8203,7.08541 -2.55893,14.2322 -1.30431,12.61921 -0.43839,13.48433 30.01083,29.97454 17.24462,9.33907 32.67662,17.00209 34.29339,17.02897 1.61651,0.0259 2.93939,-17.4172 2.93939,-38.76452 z M 140.01093,378.8853 c 7.54451,-1.98245 21.21287,-5.52654 30.37408,-7.87571 l 16.65678,-4.27131 v -71.25809 c 0,-68.41242 -0.32063,-71.35871 -8.02663,-73.77618 -4.41459,-1.38489 -10.43137,-0.54591 -13.37063,1.86579 -14.79117,12.13388 -76.583696,115.39974 -76.583696,127.98457 0,6.23906 24.696966,30.41357 31.353866,30.69056 3.23334,0.13428 12.05171,-1.37752 19.59623,-3.35963 z M 451.59036,270.75667 c 12.93344,-9.58828 24.18534,-17.93274 25.00409,-18.54348 0.81894,-0.6112 1.97358,-11.19833 2.56616,-23.5282 0.59261,-12.32984 1.68613,-25.53527 2.43047,-29.34515 0.95775,-4.90296 -11.78831,-17.53598 -43.61868,-43.23179 -43.95903,-35.48679 -45.21112,-36.18209 -55.60063,-30.87143 -5.84575,2.9881 -11.52775,6.87054 -12.6263,8.62759 -1.90201,3.04211 7.64574,109.96575 11.34058,127.001 1.9263,8.88123 36.76695,32.63085 43.06962,29.35899 2.15557,-1.11892 14.50109,-9.87942 27.43469,-19.46753 z m 198.70392,-82.18642 c 103.12239,-28.99706 120.71407,-34.88051 120.71407,-40.37203 0,-5.7303 -43.42741,-33.63892 -78.61453,-50.521532 l -21.7856,-10.452734 -11.83684,11.700088 c -11.35013,11.219208 -33.6572,20.111178 -50.56655,20.156918 -5.86928,0.0129 -11.96124,7.28277 -22.9242,27.34542 l -14.9307,27.32391 10.71967,15.28985 c 5.89583,8.4094 11.27292,15.28992 11.949,15.28992 0.67579,0 26.45012,-7.09198 57.27568,-15.75987 z M 517.93909,173.47259 c 6.61986,-2.05678 16.71779,-4.66317 22.43995,-5.792 8.03279,-1.58483 13.97058,-8.45767 26.0534,-30.15763 L 582.0819,109.41761 570.72555,94.127059 c -6.24588,-8.409858 -11.35619,-17.562116 -11.35619,-20.33837 0,-3.853189 -10.43434,-5.029314 -44.09145,-4.969858 -56.73381,0.101148 -93.3597,5.254405 -99.8694,14.054147 -11.18074,15.113979 -6.21579,22.986882 37.16161,58.928062 23.17249,19.19999 44.65211,35.02208 47.73238,35.16013 3.08038,0.13824 11.01684,-1.43181 17.63659,-3.48858 z"
       id="path4" />
  </g>
</svg>
